<svg height="511pt" viewBox="-3 0 511 511.99866" width="511pt" xmlns="http://www.w3.org/2000/svg"><path d="m173.625 502.023438c0-5.507813-20.671875-9.972657-46.167969-9.972657-25.5 0-46.171875 4.464844-46.171875 9.972657 0 5.507812 20.671875 9.976562 46.171875 9.976562 25.496094 0 46.167969-4.46875 46.167969-9.976562zm0 0" fill="#82878c"/><path d="m402.050781 502.023438c0-5.507813-20.671875-9.972657-46.167969-9.972657-25.5 0-46.171874 4.464844-46.171874 9.972657 0 5.507812 20.671874 9.976562 46.171874 9.976562 25.496094 0 46.167969-4.46875 46.167969-9.976562zm0 0" fill="#82878c"/><path d="m176.941406 88.9375h-99.125l-76.875 362.367188c-2.117187 7.652343 3.636719 15.21875 11.578125 15.21875h229.71875c7.941407 0 13.695313-7.566407 11.578125-15.21875zm0 0" fill="#fa503c"/><path d="m153.714844 429.382812c-11.316406 0-20.488282-9.175781-20.488282-20.488281v-163.746093c0-11.316407 9.175782-20.488282 20.488282-20.488282s20.484375 9.171875 20.484375 20.488282v163.746093c0 11.3125-9.171875 20.488281-20.484375 20.488281zm0 0" fill="#414b82"/><path d="m104.257812 429.382812c-11.3125 0-20.484374-9.175781-20.484374-20.488281v-163.746093c0-11.316407 9.171874-20.488282 20.484374-20.488282 11.316407 0 20.488282 9.171875 20.488282 20.488282v163.746093c0 11.3125-9.171875 20.488281-20.488282 20.488281zm0 0" fill="#5f6e9b"/><path d="m241.128906 148.578125-33.871094-48.75c-7.957031-11.449219-21.027343-18.285156-34.96875-18.285156-13.253906 0-73.511718 0-86.445312 0-14.742188 0-28.667969 7.820312-36.347656 20.40625l-32.613282 53.449219c-4.609374 7.554687-2.683593 17.378906 4.441407 22.632812l41.574219 30.660156c6.429687 4.742188 15.003906 4.269532 20.875-.496094v36.953126h90.425781v-35.382813c.976562 1.914063 2.324219 3.679687 4.046875 5.167969 7.164062 6.183594 17.941406 5.34375 24.078125-1.769532l37.710937-43.691406c5.089844-5.898437 5.539063-14.496094 1.09375-20.894531zm-157.964844 32.636719-28.992187-21.378906 24.472656-40.105469c.015625-.027344.03125-.054688.050781-.082031 1.457032-2.324219 5.078126-1.203126 5.078126 1.539062v60.527344c-.203126-.167969-.394532-.34375-.609376-.5zm93.3125 9.640625c-.917968 1.066406-1.664062 2.21875-2.277343 3.421875v-73.34375c0-2.65625 3.449219-3.84375 4.980469-1.675782.011718.015626.023437.035157.035156.050782l26.320312 37.878906zm0 0" fill="#64afff"/><path d="m164.457031 37.863281c0 19.539063-15.84375 35.378907-35.382812 35.378907-19.539063 0-35.382813-15.839844-35.382813-35.378907 0-19.542969 15.84375-35.382812 35.382813-35.382812 19.539062 0 35.382812 15.839843 35.382812 35.382812zm0 0" fill="#ffac91"/><path d="m149.957031 128.703125c0 11.53125-9.347656 20.882813-20.882812 20.882813-11.53125 0-20.882813-9.351563-20.882813-20.882813 0-11.535156 9.351563-20.882813 20.882813-20.882813 11.535156 0 20.882812 9.347657 20.882812 20.882813zm0 0" fill="#fff"/><path d="m83.164062 181.214844-20.265624 27.476562c7.636718 5.632813 18.3125 3.933594 23.871093-3.605468 5.597657-7.589844 3.980469-18.277344-3.605469-23.871094zm0 0" fill="#ffac91"/><path d="m176.476562 190.855469c-6.160156 7.136719-5.367187 17.917969 1.769532 24.078125 7.164062 6.183594 17.941406 5.34375 24.078125-1.769532zm0 0" fill="#ffac91"/><path d="m356.332031 455.171875c-.019531 0-.039062 0-.058593 0-11.570313-.03125-20.925782-9.4375-20.894532-21.007813v-188.84375c.03125-11.550781 9.921875-20.890624 21.464844-20.890624h.054688c11.570312.03125 20.410156 9.4375 20.378906 21.007812v188.84375c-.03125 11.550781-9.402344 20.890625-20.945313 20.890625zm0 0" fill="#748488"/><path d="m420.402344 386.566406c-10.910156-3.851562-16.632813-15.816406-12.78125-26.726562l23.605468-66.871094-40.246093-34.789062c-8.753907-7.566407-9.71875-20.792969-2.152344-29.546876 7.566406-8.753906 20.800781-9.71875 29.550781-2.152343l51.058594 44.136719c6.523438 5.636718 8.925781 14.695312 6.054688 22.824218l-28.363282 80.34375c-3.859375 10.941406-15.847656 16.621094-26.726562 12.78125zm0 0" fill="#55696e"/><path d="m496.886719 129.324219c-12.128907-5.175781-31.480469-13.507813-43.765625-18.800781-7.578125-3.265626-15.738282-4.949219-23.988282-4.949219h-92.691406l-45.300781-26.207031v-63.242188c0-8.808594-7.207031-16.289062-16.011719-16.12109375-8.539062.16015575-15.410156 7.13281275-15.410156 15.70703175v72.71875c0 5.609374 2.988281 10.792968 7.84375 13.601562l52.996094 30.65625 14.804687 129.6875h60.351563c16.589844 0 30.507812-12.507812 32.269531-29.003906l10.171875-95.15625 29.867188 12.882812-22.03125 37.105469c-4.429688 7.460937-1.976563 17.101563 5.488281 21.53125 7.488281 4.449219 17.117187 1.945313 21.53125-5.484375l31.160156-52.476562c4.828125-8.132813 1.425781-18.691407-7.285156-22.449219zm0 0" fill="#ffb69e"/><path d="m496.886719 129.324219c-12.128907-5.175781-31.480469-13.507813-43.765625-18.800781-7.578125-3.265626-15.738282-4.949219-23.988282-4.949219h-92.691406l-45.300781-26.207031v-63.242188l-31.421875-.414062v72.71875c0 5.609374 2.988281 10.792968 7.84375 13.601562l52.996094 30.65625 14.804687 129.6875h60.351563c16.589844 0 30.507812-12.507812 32.269531-29.003906l10.171875-95.15625 29.867188 12.882812-22.03125 37.105469 27.019531 16.046875 31.160156-52.476562c4.828125-8.132813 1.425781-18.691407-7.285156-22.449219zm0 0" fill="#fa503c"/><path d="m417.925781 55.445312c0 20.078126-16.277343 36.355469-36.359375 36.355469-20.082031 0-36.359375-16.277343-36.359375-36.355469 0-20.082031 16.277344-36.359374 36.359375-36.359374 20.082032 0 36.359375 16.277343 36.359375 36.359374zm0 0" fill="#ffb69e"/><path d="m391.207031 132.109375h-19.285156c-2.09375 0-4.03125 1.117187-5.078125 2.933594l-9.644531 16.699219c-1.046875 1.816406-1.046875 4.054687 0 5.867187l9.644531 16.703125c1.046875 1.8125 2.984375 2.933594 5.078125 2.933594h19.285156c2.097657 0 4.035157-1.121094 5.082031-2.933594l9.644532-16.703125c1.046875-1.8125 1.046875-4.050781 0-5.867187l-9.644532-16.699219c-1.046874-1.816407-2.984374-2.933594-5.082031-2.933594zm0 0" fill="#fff"/><g fill="#ffda52"><path d="m330.164062 216.824219 2.046876 17.933593h95.59375c.066406-.460937.128906-.921874.179687-1.390624l1.769531-16.542969zm0 0"/><path d="m395.578125 238.773438h-28.023437c-1.515626 0-2.742188-1.226563-2.742188-2.742188v-20.519531c0-1.515625 1.230469-2.742188 2.742188-2.742188h28.023437c1.511719 0 2.738281 1.226563 2.738281 2.742188v20.519531c.003906 1.515625-1.226562 2.742188-2.738281 2.742188zm0 0"/></g></svg>