<svg height="511pt" viewBox="-2 1 511 511.99999" width="511pt" xmlns="http://www.w3.org/2000/svg"><path d="m419.058594 57.003906c0 20.3125-16.46875 36.78125-36.78125 36.78125s-36.78125-16.46875-36.78125-36.78125 16.46875-36.78125 36.78125-36.78125 36.78125 16.46875 36.78125 36.78125zm0 0"/><path d="m498.9375 131.742188-47.722656-20.515626c-5.382813-2.316406-11.183594-3.507812-17.042969-3.507812h-97.542969l-45.824218-26.511719v-63.945312c0-8.5625-6.578126-15.925781-15.128907-16.328125-9.125-.429688-16.660156 6.84375-16.660156 15.878906v73.5625c0 5.671875 3.023437 10.917969 7.933594 13.757812l53.609375 31.011719 10.234375 85.113281h34.535156v-1.328124c0-1.53125 1.242187-2.773438 2.773437-2.773438h28.347657c1.535156 0 2.777343 1.242188 2.777343 2.773438v1.328124h31.800782l8.5-79.523437 30.214844 13.035156-22.289063 37.535157c-4.484375 7.546874-1.996094 17.300781 5.550781 21.78125 7.578125 4.5 17.316406 1.96875 21.78125-5.550782l31.339844-52.777344c5.3125-8.949218 1.296875-19.355468-7.1875-23.015624zm-92.011719 28.613281-9.753906 16.898437c-1.058594 1.835938-3.019531 2.964844-5.140625 2.964844h-19.507812c-2.121094 0-4.078126-1.128906-5.140626-2.964844l-9.753906-16.898437c-1.058594-1.835938-1.058594-4.097657 0-5.933594l9.753906-16.894531c1.0625-1.835938 3.019532-2.96875 5.140626-2.96875h19.507812c2.121094 0 4.082031 1.132812 5.140625 2.96875l9.753906 16.894531c1.0625 1.835937 1.0625 4.097656 0 5.933594zm0 0"/><path d="m471.171875 274.675781-41.96875-36.273437h-29.976563v1.289062c0 1.53125-1.242187 2.773438-2.773437 2.773438h-28.347656c-1.53125 0-2.777344-1.242188-2.777344-2.773438v-1.289062h-32.351563l2.578126 21.453125-.488282 180.34375c-.03125 11.703125 9.429688 21.21875 21.132813 21.25h.058593c11.679688 0 21.160157-9.449219 21.191407-21.132813l.476562-173.976562h18.78125l35.808594 30.949218-23.878906 67.644532c-3.898438 11.039062 1.890625 23.144531 12.929687 27.039062 10.988282 3.878906 23.125-1.84375 27.039063-12.929687l28.691406-81.277344c2.902344-8.222656.472656-17.386719-6.125-23.089844zm0 0"/><path d="m174.457031 501.976562c0-5.535156-20.773437-10.023437-46.394531-10.023437s-46.390625 4.488281-46.390625 10.023437c0 5.535157 20.769531 10.023438 46.390625 10.023438s46.394531-4.488281 46.394531-10.023438zm0 0"/><path d="m403.972656 501.976562c0-5.535156-20.769531-10.023437-46.390625-10.023437-25.621093 0-46.390625 4.488281-46.390625 10.023437 0 5.535157 20.769532 10.023438 46.390625 10.023438 25.621094 0 46.390625-4.488281 46.390625-10.023438zm0 0"/><path d="m207.976562 230.851562c-5.722656 4.199219-12.859374 6.222657-20.105468 5.542969v185.59375c0 18.914063-15.386719 34.300781-34.300782 34.300781-10.207031 0-19.386718-4.480468-25.675781-11.578124-6.289062 7.097656-15.46875 11.578124-25.675781 11.578124-18.910156 0-34.300781-15.386718-34.300781-34.300781 0-6.308593 0-182.984375 0-192.859375-10.699219-.675781-16.609375-6.679687-17.976563-7.453125l-48.996094 230.980469c-2.128906 7.691406 3.652344 15.292969 11.632813 15.292969h230.820313c7.976562 0 13.761718-7.601563 11.632812-15.292969zm0 0"/><path d="m16.105469 182.277344 43.167969 31.835937c7.929687 5.847657 19.015624 4.082031 24.789062-3.746093 5.808594-7.878907 4.132812-18.976563-3.746094-24.785157l-30.101562-22.199219c8.984375-14.722656 15.601562-25.566406 25.40625-41.640624 1.199218-1.960938 3.140625-3.355469 5.328125-3.917969v53.785156l6.265625 4.617187c13.042968 9.621094 15.820312 27.996094 6.203125 41.042969-3.3125 4.484375-7.660157 7.75-12.464844 9.71875v195c0 11.75 9.523437 21.273438 21.269531 21.273438s21.273438-9.523438 21.273438-21.273438v-170.019531h8.804687v170.019531c0 11.75 9.523438 21.273438 21.273438 21.273438 11.746093 0 21.269531-9.523438 21.269531-21.273438 0-7.054687 0-180.738281 0-190.066406-1.171875-.75-2.308594-1.589844-3.390625-2.527344-12.269531-10.589843-13.632813-29.121093-3.042969-41.390625l6.433594-7.457031v-62.765625c2.089844.488281 3.957031 1.726562 5.210938 3.527344 7.28125 10.476562 22.535156 32.433594 27.328124 39.328125l-30.171874 34.960937c-6.398438 7.410156-5.574219 18.601563 1.835937 25 7.4375 6.417969 18.628906 5.546875 25-1.839844l39.152344-45.363281c5.21875-6.046875 5.792969-14.996093 1.140625-21.695312l-35.171875-50.617188c-8.261719-11.886719-21.832031-18.984375-36.308594-18.984375-.285156 0-81.40625.003906-89.757813 0-15.304687 0-29.769531 8.117188-37.742187 21.183594l-33.863281 55.5c-4.773438 7.824219-2.773438 18.050781 4.609375 23.496094zm111.882812-54.65625c11.628907 0 21.054688 9.425781 21.054688 21.054687 0 11.628907-9.425781 21.054688-21.054688 21.054688-11.628906 0-21.054687-9.425781-21.054687-21.054688 0-11.628906 9.425781-21.054687 21.054687-21.054687zm0 0"/><path d="m164.722656 36.738281c0 20.289063-16.445312 36.734375-36.734375 36.734375-20.289062 0-36.738281-16.445312-36.738281-36.734375 0-20.289062 16.449219-36.738281 36.738281-36.738281 20.289063 0 36.734375 16.449219 36.734375 36.738281zm0 0"/><path d="m67.921875 150.609375-4.597656 8 4.597656 3.390625zm0 0"/><path d="m187.871094 165.449219 5-5.792969-5-7.625zm0 0"/></svg>